<svg width="400" height="600" viewBox="0 0 400 600" fill="none" xmlns="http://www.w3.org/2000/svg">
<path d="M181.766 397.926C181.766 379.064 192.033 359.694 207.327 339.977C196.409 322.373 183.984 303.63 175.112 285.546C166.7 268.403 161.481 251.852 163.765 237.425C171.524 188.426 231.635 207.424 210.765 252.925C205.848 263.645 192.792 274.886 175.112 285.546C183.984 303.63 196.409 322.373 207.327 339.977C221.213 362.367 232.662 382.916 231.266 397.926C227.731 435.926 181.766 429.426 181.766 397.926Z" fill="white"/>
<path d="M243.265 299.925C210.404 333.504 181.766 366.426 181.766 397.926C181.766 429.426 227.731 435.926 231.266 397.926C234.801 359.926 156.007 286.424 163.765 237.425C171.524 188.426 231.635 207.424 210.765 252.925C201.553 273.01 163.765 294.925 120.532 311.424" stroke="#423D35" stroke-width="20" stroke-linecap="square"/>
<circle cx="277.5" cy="270.5" r="10" fill="#423D35" stroke="#423D35" stroke-width="9"/>
<rect x="9" y="9" width="382" height="582" stroke="#423D35" stroke-width="18"/>
</svg>
