<svg width="187" height="238" viewBox="0 0 187 238" fill="none" xmlns="http://www.w3.org/2000/svg">
<path d="M76.7656 199.338C76.7656 180.476 87.0333 161.106 102.327 141.389C91.4091 123.785 78.9843 105.042 70.1116 86.9586C61.7 69.8148 56.4811 53.2636 58.7654 38.8367C66.5238 -10.1623 126.635 8.83655 105.765 54.3373C100.848 65.0569 87.7918 76.2978 70.1116 86.9586C78.9843 105.042 91.4091 123.785 102.327 141.389C116.213 163.779 127.662 184.328 126.266 199.338C122.731 237.338 76.7657 230.838 76.7656 199.338Z" fill="white"/>
<path d="M138.265 101.337C105.404 134.916 76.7656 167.838 76.7656 199.338C76.7657 230.838 122.731 237.338 126.266 199.338C129.801 161.338 51.007 87.8357 58.7654 38.8367C66.5238 -10.1623 126.635 8.83655 105.765 54.3373C96.553 74.4218 58.7654 96.3367 15.5324 112.836" stroke="#1A1814" stroke-width="20" stroke-linecap="square"/>
<circle cx="172.5" cy="71.9121" r="10" fill="#1A1814" stroke="#1A1814" stroke-width="9"/>
</svg>
